# xmcd
#
# Track frame offsets: 
#        150
#        18892
#        35130
#        53642
#        70567
#        84380
#        96417
#        108042
#        123317
#        136867
#        149712
#        161167
#        172792
#        188942
#        203492
#        217670
#        236992
#        253417
#        269792
#        281192
#
# Disc length: 3964 seconds
#
# Revision: 2
# Processed by: cddbd v1.5.2PL0 Copyright (c) Steve Scherf et al.
# Submitted via: ExactAudioCopy v1.0b3
#
DISCID=280f7a14
DTITLE=Various Artist - The Best Country Hits of the 70's and 80's - Disc 2
DYEAR=1995
DGENRE=Country
TTITLE0=K.T. Oslin - I'll Always Come Back
TTITLE1=Johnny Lee - Lookin' For Love
TTITLE2=Juice Newton - The Sweetest Thing (I've Ever Known)
TTITLE3=Ray Stevens - The Mississippi Squirrel Revival
TTITLE4=Oak Ridge Boys - This Crazy Love
TTITLE5=Gene Watson - Fourteen Carat Mind
TTITLE6=Waylon Jennings - Rough and Rowdy Days
TTITLE7=Lee Greenwood - Mornin' Ride
TTITLE8=Terri Gibbs - Somebody's Knockin'
TTITLE9=Conway Twitty - Tight Fittin' Jeans
TTITLE10=Willie Nelson - On The Road Again
TTITLE11=John Anderson - If It Ain't Broke, Don't Fix It
TTITLE12=Bellamy Brothers - Crazy From the Heart
TTITLE13=John Schneider - Country Girls
TTITLE14=Steve Wariner - Lynda
TTITLE15=Ronnie Milsap - Lost in the 50's Tonight (In the Still of the
TTITLE15=Night)
TTITLE16=John Conlee - In My Eyes
TTITLE17=Eddie Rabbitt - On Second Thought
TTITLE18=Patty Loveless - Timber, I'm Falling In Love
TTITLE19=Vince Gill - Never Alone
EXTD=
EXTT0=
EXTT1=
EXTT2=
EXTT3=
EXTT4=
EXTT5=
EXTT6=
EXTT7=
EXTT8=
EXTT9=
EXTT10=
EXTT11=
EXTT12=
EXTT13=
EXTT14=
EXTT15=
EXTT16=
EXTT17=
EXTT18=
EXTT19=
PLAYORDER=
